<svg xmlns="http://www.w3.org/2000/svg" width="1200" height="800" viewBox="0 0 1200 800" role="img" aria-labelledby="title desc">
  <title id="title">OPTION B • PL-01 • CONCEPT PLAN</title>
  <desc id="desc">SINGLE-BARTENDER LINEAR GALLERY. Tongue at left, rear doors at right, service opening on trailer-right side, and retained staff door on trailer-left side.</desc>
  <defs>
    <marker id="arrow" markerWidth="8" markerHeight="8" refX="4" refY="4" orient="auto-start-reverse"><path d="M0,0 L8,4 L0,8 z" fill="#8B908D"/></marker>
    <pattern id="hatch" width="10" height="10" patternUnits="userSpaceOnUse" patternTransform="rotate(45)"><line x1="0" y1="0" x2="0" y2="10" stroke="#8B908D" stroke-width="2"/></pattern>
  </defs>
  <style>.ew{font:700 12px Arial;text-anchor:middle;fill:#FFF}.dw{font:11px Arial;text-anchor:middle;fill:#FFF}.small{font-size:10px}</style>
  <rect width="1200" height="800" fill="#FFFDF8"/><rect x="28" y="28" width="1144" height="744" fill="none" stroke="#2E3232" stroke-width="2"/>
  <text x="56" y="70" font-family="Arial" font-size="28" font-weight="700" fill="#315B50">OPTION B • PL-01 • CONCEPT PLAN</text>
  <text x="56" y="100" font-family="Arial" font-size="16" fill="#2E3232">SINGLE-BARTENDER LINEAR GALLERY • PHOTOGRAPHED TRAILER HANDEDNESS</text>
  <line x1="56" y1="118" x2="1144" y2="118" stroke="#B56F4C" stroke-width="4"/>
  <line x1="56" y1="400" x2="180" y2="260" stroke="#2E3232" stroke-width="9" stroke-linecap="round"/><line x1="56" y1="400" x2="180" y2="540" stroke="#2E3232" stroke-width="9" stroke-linecap="round"/><line x1="56" y1="400" x2="180" y2="400" stroke="#2E3232" stroke-width="7"/><circle cx="49" cy="400" r="11" fill="#FFFDF8" stroke="#2E3232" stroke-width="5"/><rect x="101" y="374" width="42" height="52" rx="5" fill="#DED8CD" stroke="#2E3232" stroke-width="3"/><text x="100" y="445" font-family="Arial" font-size="11" text-anchor="middle" font-weight="700" fill="#315B50">TONGUE / FRONT</text>
  <rect x="180" y="225" width="870" height="350" fill="#F4EFE5" stroke="#2E3232" stroke-width="3" rx="16"/><line x1="363" y1="225" x2="363" y2="575" stroke="#8B908D" stroke-width="1" stroke-dasharray="8 6"/>
  <text x="272" y="275" font-family="Arial" font-size="14" text-anchor="middle" font-weight="700" fill="#315B50">24&quot; FRONT SUPPORT</text><text x="272" y="298" font-family="Arial" font-size="13" text-anchor="middle" fill="#2E3232">EMPLOYEE BREAK</text><rect x="211" y="325" width="122" height="66" rx="6" fill="#DED8CD" stroke="#8B908D"/><text x="272" y="353" font-family="Arial" font-size="12" text-anchor="middle" font-weight="700" fill="#2E3232">FOLD-DOWN SEAT</text><text x="272" y="372" font-family="Arial" font-size="12" text-anchor="middle" font-weight="700" fill="#315B50">OPEN TO AISLE</text><rect x="220" y="430" width="104" height="64" fill="#FFFDF8" stroke="#9A4D43" stroke-width="2" stroke-dasharray="8 6"/><text x="272" y="457" font-family="Arial" font-size="11" text-anchor="middle" font-weight="700" fill="#9A4D43">DRY / ELECTRIC</text><text x="272" y="476" font-family="Arial" font-size="11" text-anchor="middle" font-weight="700" fill="#9A4D43">VERIFY</text>
  <line x1="1050" y1="249" x2="1050" y2="372" stroke="#B56F4C" stroke-width="7"/><line x1="1050" y1="428" x2="1050" y2="551" stroke="#B56F4C" stroke-width="7"/><text x="1062" y="393" font-family="Arial" font-size="12" font-weight="700" fill="#B56F4C">REAR</text><text x="1062" y="411" font-family="Arial" font-size="12" font-weight="700" fill="#B56F4C">DOUBLE</text><text x="1062" y="429" font-family="Arial" font-size="12" font-weight="700" fill="#B56F4C">DOORS</text>
  <text x="615" y="211" font-family="Arial" font-size="14" text-anchor="middle" font-weight="700" fill="#315B50">TRAILER LEFT • STREET / UTILITY / STAFF-DOOR SIDE</text><line x1="210" y1="225" x2="334" y2="225" stroke="#9A4D43" stroke-width="8" stroke-dasharray="12 7"/><text x="272" y="244" font-family="Arial" font-size="10" text-anchor="middle" font-weight="700" fill="#9A4D43">EXISTING STAFF DOOR</text><text x="272" y="258" font-family="Arial" font-size="10" text-anchor="middle" font-weight="700" fill="#9A4D43">RETAIN • LOCATION VERIFY</text>
  <rect x="363" y="225" width="687" height="26" fill="#FFFDF8" stroke="#B56F4C" stroke-width="2" stroke-dasharray="7 5"/><text x="706" y="243" font-family="Arial" font-size="10.5" text-anchor="middle" font-weight="700" fill="#B56F4C">OVERHEAD LINEAR GALLERY • NO FLOOR PROJECTION</text>
  <text x="615" y="608" font-family="Arial" font-size="14" text-anchor="middle" font-weight="700" fill="#315B50">TRAILER RIGHT • CURB / SERVICE / CUSTOMER SIDE</text>
  <line x1="478" y1="575" x2="936" y2="575" stroke="#B56F4C" stroke-width="9"/><text x="707" y="398" font-family="Arial" font-size="11" text-anchor="middle" font-weight="700" fill="#B56F4C">SERVICE HATCH WITHIN EXISTING PHOTOGRAPHED WINDOW BAY • 60&quot; MAX • VERIFY</text>

  <rect x="363" y="421" width="92" height="154" fill="#577A86" stroke="#FFFDF8" stroke-width="2"/>
  <rect x="455" y="421" width="275" height="154" fill="#577A86" stroke="#FFFDF8" stroke-width="2"/>
  <rect x="730" y="421" width="183" height="154" fill="#315B50" stroke="#FFFDF8" stroke-width="2"/>
  <rect x="913" y="421" width="137" height="154" fill="#6F8B80" stroke="#FFFDF8" stroke-width="2"/>
  <text x="409" y="488" class="ew">HAND</text><text x="409" y="507" class="ew">SINK</text><text x="409" y="562" class="dw">12&quot;</text>
  <text x="592" y="488" class="ew">2-COMP SINK</text><text x="592" y="507" class="ew">+ RIGHT DRAINBOARD</text><text x="592" y="562" class="dw">36&quot;</text>
  <text x="822" y="488" class="ew">COCKTAIL / ICE</text><text x="822" y="507" class="ew">STATION</text><text x="822" y="562" class="dw">24&quot;</text>
  <text x="982" y="498" class="ew small">REFRIGERATOR</text><text x="982" y="562" class="dw">18&quot;</text><rect x="363" y="421" width="687" height="154" fill="none" stroke="#B56F4C" stroke-width="3"/><text x="706" y="414" font-family="Arial" font-size="12" text-anchor="middle" font-weight="700" fill="#315B50">90&quot; UNDER-WINDOW EQUIPMENT LINE • FRONT → REAR</text>
  <text x="610" y="340" font-family="Arial" font-size="18" text-anchor="middle" font-weight="700" fill="#2E3232">32&quot; NOMINAL CLEAR AISLE</text><text x="610" y="362" font-family="Arial" font-size="11" text-anchor="middle" fill="#8B908D">OPEN OPPOSITE LOWER WALL • NO SECOND COUNTER</text>
  <rect x="730" y="620" width="252" height="24" rx="12" fill="none" stroke="#8B908D" stroke-width="2" stroke-dasharray="7 5"/><circle cx="804" cy="632" r="9" fill="none" stroke="#8B908D" stroke-width="2"/><circle cx="908" cy="632" r="9" fill="none" stroke="#8B908D" stroke-width="2"/><text x="856" y="661" font-family="Arial" font-size="10" text-anchor="middle" font-weight="700" fill="#8B908D">TANDEM FENDER / STRUCTURAL ZONE • PHOTO LOCATION ONLY • VERIFY</text>
  <line x1="180" y1="690" x2="363" y2="690" stroke="#8B908D" marker-start="url(#arrow)" marker-end="url(#arrow)"/><text x="272" y="683" font-family="Arial" font-size="12" text-anchor="middle" font-weight="700" fill="#8B908D">24&quot;</text><line x1="363" y1="690" x2="1050" y2="690" stroke="#8B908D" marker-start="url(#arrow)" marker-end="url(#arrow)"/><text x="706" y="683" font-family="Arial" font-size="12" text-anchor="middle" font-weight="700" fill="#8B908D">90&quot;</text><line x1="180" y1="712" x2="1050" y2="712" stroke="#8B908D" marker-start="url(#arrow)" marker-end="url(#arrow)"/><text x="615" y="706" font-family="Arial" font-size="12" text-anchor="middle" font-weight="700" fill="#8B908D">114&quot; ASSUMED INTERIOR CLEAR LENGTH</text>
  <line x1="56" y1="730" x2="1144" y2="730" stroke="#2E3232"/><text x="56" y="754" font-family="Arial" font-size="10.5" font-weight="700" fill="#2E3232">REVISED CONCEPT • NOT FOR FABRICATION • PHOTO PROXY IS NOT STRUCTURAL EVIDENCE</text><text x="1144" y="754" font-family="Arial" font-size="10.5" text-anchor="end" fill="#8B908D">VERIFY AGAINST ACQUIRED TRAILER</text>
</svg>
