<svg xmlns="http://www.w3.org/2000/svg" width="1400" height="933" viewBox="0 0 1400 933">
  <rect width="1400" height="933" fill="#17130f"/>
  <path d="M40 110 Q700 -70 1360 110 L862 300 Q700 190 538 300 Z" fill="#9a4f28" stroke="#24211d" stroke-width="5"/>
  <path d="M40 110 L538 300 L538 700 L40 900 Z" fill="#c5b59e" stroke="#2c2a26" stroke-width="5"/>
  <path d="M1360 110 L862 300 L862 700 L1360 900 Z" fill="#c5b59e" stroke="#2c2a26" stroke-width="5"/>
  <path d="M538 300 Q700 190 862 300 L862 700 L538 700 Z" fill="#bcae98" stroke="#2c2a26" stroke-width="5"/>
  <path d="M40 900 L538 700 L862 700 L1360 900 Z" fill="#38261c" stroke="#2c2a26" stroke-width="5"/>

  <rect x="600" y="330" width="205" height="68" rx="4" fill="#70513b" stroke="#33443d" stroke-width="5"/>
  <line x1="668" y1="330" x2="668" y2="398" stroke="#d8c8b1" stroke-width="2"/><line x1="737" y1="330" x2="737" y2="398" stroke="#d8c8b1" stroke-width="2"/>
  <rect x="610" y="425" width="82" height="100" fill="#e5dfd2" stroke="#33443d" stroke-width="3"/>
  <rect x="610" y="565" width="195" height="70" rx="6" fill="#6d4c3b" stroke="#33443d" stroke-width="4"/>
  <rect x="545" y="352" width="34" height="76" fill="#383b39" stroke="#171717" stroke-width="3"/>
  <text x="700" y="415" text-anchor="middle" font-family="Arial" font-size="17" fill="#233b34">OPEN FRONT BREAK NOOK</text>
  <text x="708" y="605" text-anchor="middle" font-family="Arial" font-size="13" fill="#fff">FOLD-DOWN SEAT</text>
  <text x="562" y="445" text-anchor="middle" font-family="Arial" font-size="13" fill="#233b34">DRY PANEL</text>

  <path d="M40 600 L516 680 L677 570 L538 520 Z" fill="#9c9b96" stroke="#202522" stroke-width="5"/>
  <path d="M516 680 L677 570 L677 700 L516 900 Z" fill="#4e2c1e" stroke="#202522" stroke-width="5"/>

  <path d="M516 680 L548 658 L548 860 L516 900 Z" fill="#58402f" stroke="#f1e5cf" stroke-width="2"/>
  <path d="M548 658 L591 629 L591 807 L548 860 Z" fill="#4d3023" stroke="#f1e5cf" stroke-width="2"/>
  <path d="M591 629 L655 585 L655 727 L591 807 Z" fill="#60402e" stroke="#f1e5cf" stroke-width="2"/>
  <path d="M655 585 L677 570 L677 700 L655 727 Z" fill="#523628" stroke="#f1e5cf" stroke-width="2"/>
  <text x="532" y="830" transform="rotate(-73 532 830)" font-family="Arial" font-size="15" fill="#fff">18 REF</text>
  <text x="568" y="765" transform="rotate(-67 568 765)" font-family="Arial" font-size="15" fill="#fff">24 ICE</text>
  <text x="620" y="690" transform="rotate(-57 620 690)" font-family="Arial" font-size="15" fill="#fff">36 TWO-SINK</text>
  <text x="658" y="650" transform="rotate(-48 658 650)" font-family="Arial" font-size="12" fill="#fff">12 HAND</text>

  <path d="M1277 158 L945 272 L945 503 L1277 517 Z" fill="#071322" stroke="#2b2925" stroke-width="6"/>
  <path d="M1277 517 L945 503 L945 733 L1277 867 Z" fill="#4d2e21" stroke="#2b2925" stroke-width="5"/>
  <line x1="1215" y1="522" x2="1215" y2="842" stroke="#c2a582" stroke-width="3"/>
  <line x1="1145" y1="519" x2="1145" y2="813" stroke="#c2a582" stroke-width="3"/>
  <line x1="1075" y1="516" x2="1075" y2="784" stroke="#c2a582" stroke-width="3"/>
  <line x1="1008" y1="510" x2="1008" y2="756" stroke="#c2a582" stroke-width="3"/>
  <path d="M1288 510 L940 494 L928 516 L1280 536 Z" fill="#5a301e" stroke="#2b2925" stroke-width="4"/>
  <text x="1110" y="390" text-anchor="middle" font-family="Arial" font-size="18" fill="#fff">60 × 30 SERVICE OPENING</text>
  <text x="1105" y="700" text-anchor="middle" font-family="Arial" font-size="16" fill="#ead8bb">6-IN OUTBOARD STORAGE — FLUSH INSIDE</text>

  <path d="M570 235 L830 235 L792 170 L608 170 Z" fill="#486272" stroke="#202522" stroke-width="5"/>
  <text x="700" y="207" text-anchor="middle" font-family="Arial" font-size="14" fill="#fff">ROOF HATCH — FORWARD / TONGUE</text>

  <line x1="516" y1="915" x2="1360" y2="915" stroke="#f4e3c7" stroke-width="3"/>
  <line x1="516" y1="905" x2="516" y2="925" stroke="#f4e3c7" stroke-width="3"/>
  <line x1="1360" y1="905" x2="1360" y2="925" stroke="#f4e3c7" stroke-width="3"/>
  <text x="938" y="908" text-anchor="middle" font-family="Arial" font-size="18" fill="#f4e3c7">32-IN CLEAR AISLE</text>
  <text x="70" y="55" font-family="Arial" font-size="22" font-weight="bold" fill="#fff">A-IN-01 GEOMETRY GUIDE — REAR LOOKING FRONT</text>
  <text x="70" y="82" font-family="Arial" font-size="16" fill="#e7ccb0">56 IN CLEAR = 24 IN COUNTER + 32 IN AISLE • 90 IN WORK BAY • UP TO 24 IN WISH-LIST OPEN NOOK</text>
</svg>
